<svg width="18" height="19" viewBox="0 0 18 19" fill="none" xmlns="http://www.w3.org/2000/svg">
<path d="M9 11.75C10.2426 11.75 11.25 10.7426 11.25 9.5C11.25 8.25736 10.2426 7.25 9 7.25C7.75736 7.25 6.75 8.25736 6.75 9.5C6.75 10.7426 7.75736 11.75 9 11.75Z" stroke="#252525" stroke-width="1.3" stroke-miterlimit="10" stroke-linecap="round" stroke-linejoin="round"/>
<path d="M1.5 10.16V8.84001C1.5 8.06001 2.1375 7.41501 2.925 7.41501C4.2825 7.41501 4.8375 6.45501 4.155 5.27751C3.765 4.60251 3.9975 3.72501 4.68 3.33501L5.9775 2.59251C6.57 2.24001 7.335 2.45001 7.6875 3.04251L7.77 3.18501C8.445 4.36251 9.555 4.36251 10.2375 3.18501L10.32 3.04251C10.6725 2.45001 11.4375 2.24001 12.03 2.59251L13.3275 3.33501C14.01 3.72501 14.2425 4.60251 13.8525 5.27751C13.17 6.45501 13.725 7.41501 15.0825 7.41501C15.8625 7.41501 16.5075 8.05251 16.5075 8.84001V10.16C16.5075 10.94 15.87 11.585 15.0825 11.585C13.725 11.585 13.17 12.545 13.8525 13.7225C14.2425 14.405 14.01 15.275 13.3275 15.665L12.03 16.4075C11.4375 16.76 10.6725 16.55 10.32 15.9575L10.2375 15.815C9.5625 14.6375 8.4525 14.6375 7.77 15.815L7.6875 15.9575C7.335 16.55 6.57 16.76 5.9775 16.4075L4.68 15.665C3.9975 15.275 3.765 14.3975 4.155 13.7225C4.8375 12.545 4.2825 11.585 2.925 11.585C2.1375 11.585 1.5 10.94 1.5 10.16Z" stroke="#252525" stroke-width="1.3" stroke-miterlimit="10" stroke-linecap="round" stroke-linejoin="round"/>
</svg>
