<svg width="20" height="20" viewBox="0 0 20 20" fill="none" xmlns="http://www.w3.org/2000/svg">
<path d="M16.6489 7.34518L16.688 7.37057C16.7094 7.39209 16.7231 7.42274 16.7231 7.45847C16.7231 7.47618 16.7193 7.49258 16.7134 7.50729L16.688 7.54636L11.2544 12.9799C10.9097 13.3245 10.4548 13.5005 9.99951 13.5005C9.60124 13.5004 9.2035 13.3655 8.87939 13.101L8.74463 12.9799L3.31201 7.54636C3.29051 7.52486 3.27689 7.49426 3.27686 7.45847C3.27686 7.44039 3.28052 7.42361 3.28662 7.40866L3.31201 7.37057C3.33354 7.34905 3.36405 7.33542 3.3999 7.33542C3.41768 7.33543 3.43397 7.33925 3.44873 7.34518L3.48779 7.37057L8.92139 12.8032C9.47935 13.3612 10.3636 13.3967 10.9624 12.9087L11.0786 12.8032L16.5112 7.37057C16.5328 7.34905 16.5642 7.33542 16.6001 7.33542C16.6179 7.33546 16.6342 7.33923 16.6489 7.34518Z" fill="#082042" stroke="#082042"/>
</svg>
