<svg width="24" height="24" viewBox="0 0 24 24" fill="none" xmlns="http://www.w3.org/2000/svg">
<path d="M9.39313 5.75391C9.48787 5.65917 9.65191 5.65917 9.74664 5.75391C9.82935 5.83683 9.84003 5.9724 9.77789 6.06836L9.74664 6.10645L3.85309 12L9.74664 17.8936C9.84123 17.9882 9.84104 18.1513 9.74664 18.2461L9.74078 18.2529L9.73492 18.2588C9.70468 18.2912 9.64525 18.3203 9.56989 18.3203C9.52157 18.3203 9.47579 18.3071 9.43414 18.2793L9.39313 18.2461L3.32379 12.1768C3.24092 12.0939 3.23043 11.9583 3.29254 11.8623L3.32379 11.8232L9.39313 5.75391Z" fill="#082042" stroke="#082042"/>
<path d="M3.67 11.75H20.5001C20.6339 11.75 20.7501 11.8662 20.7501 12C20.7501 12.1338 20.6339 12.25 20.5001 12.25H3.67C3.53614 12.25 3.42 12.1339 3.42 12C3.42 11.8661 3.53614 11.75 3.67 11.75Z" fill="#082042" stroke="#082042"/>
</svg>
