<svg width="25" height="25" viewBox="0 0 25 25" fill="none" xmlns="http://www.w3.org/2000/svg">
<path d="M11.6665 4.33337H4.6665C4.13607 4.33337 3.62736 4.54409 3.25229 4.91916C2.87722 5.29423 2.6665 5.80294 2.6665 6.33337V20.3334C2.6665 20.8638 2.87722 21.3725 3.25229 21.7476C3.62736 22.1227 4.13607 22.3334 4.6665 22.3334H18.6665C19.1969 22.3334 19.7056 22.1227 20.0807 21.7476C20.4558 21.3725 20.6665 20.8638 20.6665 20.3334V13.3334" stroke="black" stroke-width="2" stroke-linecap="round" stroke-linejoin="round"/>
<path d="M19.1665 2.83336C19.5643 2.43553 20.1039 2.21204 20.6665 2.21204C21.2291 2.21204 21.7687 2.43553 22.1665 2.83336C22.5643 3.23118 22.7878 3.77075 22.7878 4.33336C22.7878 4.89597 22.5643 5.43553 22.1665 5.83336L12.6665 15.3334L8.6665 16.3334L9.6665 12.3334L19.1665 2.83336Z" stroke="black" stroke-width="2" stroke-linecap="round" stroke-linejoin="round"/>
</svg>
