<svg width="20" height="20" viewBox="0 0 20 20" fill="none" xmlns="http://www.w3.org/2000/svg">
<path d="M6.66602 4.29167C6.63587 4.29167 6.60459 4.27939 6.57894 4.25374C6.5533 4.2281 6.54102 4.19682 6.54102 4.16667V1.66667C6.54102 1.63652 6.5533 1.60524 6.57894 1.5796C6.60459 1.55396 6.63587 1.54167 6.66602 1.54167C6.69616 1.54167 6.72744 1.55396 6.75309 1.5796C6.77873 1.60524 6.79102 1.63652 6.79102 1.66667V4.16667C6.79102 4.19682 6.77873 4.2281 6.75309 4.25374C6.72744 4.27939 6.69616 4.29167 6.66602 4.29167Z" fill="#082042" stroke="#082042"/>
<path d="M13.334 4.29167C13.3038 4.29167 13.2726 4.27939 13.2469 4.25374C13.2213 4.2281 13.209 4.19682 13.209 4.16667V1.66667C13.209 1.63652 13.2213 1.60524 13.2469 1.5796C13.2726 1.55396 13.3038 1.54167 13.334 1.54167C13.3641 1.54167 13.3954 1.55396 13.4211 1.5796C13.4467 1.60524 13.459 1.63652 13.459 1.66667V4.16667C13.459 4.19682 13.4467 4.2281 13.4211 4.25374C13.3954 4.27939 13.3641 4.29167 13.334 4.29167Z" fill="#082042" stroke="#082042"/>
<path d="M7.08333 12.0833C6.975 12.0833 6.86667 12.0583 6.76667 12.0167C6.65833 11.975 6.575 11.9167 6.49167 11.8417C6.34167 11.6833 6.25 11.475 6.25 11.25C6.25 11.1417 6.275 11.0333 6.31667 10.9333C6.35833 10.8333 6.41667 10.7417 6.49167 10.6583C6.575 10.5833 6.65833 10.525 6.76667 10.4833C7.06667 10.3583 7.44167 10.425 7.675 10.6583C7.825 10.8167 7.91667 11.0333 7.91667 11.25C7.91667 11.3 7.90833 11.3583 7.9 11.4167C7.89167 11.4667 7.875 11.5167 7.85 11.5667C7.83333 11.6167 7.80833 11.6667 7.775 11.7167C7.75 11.7583 7.70833 11.8 7.675 11.8417C7.51667 11.9917 7.3 12.0833 7.08333 12.0833Z" fill="#082042"/>
<path d="M9.99935 12.0833C9.89102 12.0833 9.78268 12.0583 9.68268 12.0167C9.57435 11.975 9.49102 11.9167 9.40768 11.8417C9.25768 11.6833 9.16602 11.475 9.16602 11.25C9.16602 11.1417 9.19102 11.0333 9.23268 10.9333C9.27435 10.8333 9.33268 10.7417 9.40768 10.6583C9.49102 10.5833 9.57435 10.525 9.68268 10.4833C9.98268 10.35 10.3577 10.425 10.591 10.6583C10.741 10.8167 10.8327 11.0333 10.8327 11.25C10.8327 11.3 10.8243 11.3583 10.816 11.4167C10.8077 11.4667 10.791 11.5167 10.766 11.5667C10.7493 11.6167 10.7243 11.6667 10.691 11.7167C10.666 11.7583 10.6243 11.8 10.591 11.8417C10.4327 11.9917 10.216 12.0833 9.99935 12.0833Z" fill="#082042"/>
<path d="M12.9173 12.0833C12.809 12.0833 12.7007 12.0583 12.6007 12.0167C12.4923 11.975 12.409 11.9167 12.3257 11.8417C12.2923 11.8 12.259 11.7583 12.2256 11.7167C12.1923 11.6667 12.1673 11.6167 12.1507 11.5667C12.1257 11.5167 12.109 11.4667 12.1007 11.4167C12.0923 11.3583 12.084 11.3 12.084 11.25C12.084 11.0333 12.1757 10.8167 12.3257 10.6583C12.409 10.5833 12.4923 10.525 12.6007 10.4833C12.909 10.35 13.2757 10.425 13.509 10.6583C13.659 10.8167 13.7507 11.0333 13.7507 11.25C13.7507 11.3 13.7423 11.3583 13.734 11.4167C13.7257 11.4667 13.709 11.5167 13.684 11.5667C13.6673 11.6167 13.6423 11.6667 13.609 11.7167C13.584 11.7583 13.5423 11.8 13.509 11.8417C13.3507 11.9917 13.134 12.0833 12.9173 12.0833Z" fill="#082042"/>
<path d="M7.08333 15C6.975 15 6.86667 14.975 6.76667 14.9334C6.66667 14.8917 6.575 14.8333 6.49167 14.7583C6.34167 14.6 6.25 14.3833 6.25 14.1667C6.25 14.0583 6.275 13.95 6.31667 13.85C6.35833 13.7417 6.41667 13.65 6.49167 13.575C6.8 13.2667 7.36667 13.2667 7.675 13.575C7.825 13.7333 7.91667 13.95 7.91667 14.1667C7.91667 14.3833 7.825 14.6 7.675 14.7583C7.51667 14.9083 7.3 15 7.08333 15Z" fill="#082042"/>
<path d="M9.99935 15C9.78268 15 9.56602 14.9083 9.40768 14.7583C9.25768 14.6 9.16602 14.3833 9.16602 14.1667C9.16602 14.0583 9.19102 13.95 9.23268 13.85C9.27435 13.7417 9.33268 13.65 9.40768 13.575C9.71602 13.2667 10.2827 13.2667 10.591 13.575C10.666 13.65 10.7243 13.7417 10.766 13.85C10.8077 13.95 10.8327 14.0583 10.8327 14.1667C10.8327 14.3833 10.741 14.6 10.591 14.7583C10.4327 14.9083 10.216 15 9.99935 15Z" fill="#082042"/>
<path d="M12.9173 15C12.7007 15 12.484 14.9084 12.3257 14.7584C12.2507 14.6834 12.1923 14.5917 12.1507 14.4834C12.109 14.3834 12.084 14.275 12.084 14.1667C12.084 14.0584 12.109 13.95 12.1507 13.85C12.1923 13.7417 12.2507 13.65 12.3257 13.575C12.5173 13.3834 12.809 13.2917 13.0757 13.35C13.134 13.3584 13.184 13.375 13.234 13.4C13.284 13.4167 13.334 13.4417 13.384 13.475C13.4257 13.5 13.4673 13.5417 13.509 13.575C13.659 13.7334 13.7507 13.95 13.7507 14.1667C13.7507 14.3834 13.659 14.6 13.509 14.7584C13.3507 14.9084 13.134 15 12.9173 15Z" fill="#082042"/>
<path d="M17.0827 8.19997H2.91602C2.57435 8.19997 2.29102 7.91663 2.29102 7.57497C2.29102 7.2333 2.57435 6.94997 2.91602 6.94997H17.0827C17.4243 6.94997 17.7077 7.2333 17.7077 7.57497C17.7077 7.91663 17.4243 8.19997 17.0827 8.19997Z" fill="#082042"/>
<path d="M13.3333 18.9583H6.66667C3.625 18.9583 1.875 17.2083 1.875 14.1667V7.08334C1.875 4.04167 3.625 2.29167 6.66667 2.29167H13.3333C16.375 2.29167 18.125 4.04167 18.125 7.08334V14.1667C18.125 17.2083 16.375 18.9583 13.3333 18.9583ZM6.66667 3.54167C4.28333 3.54167 3.125 4.70001 3.125 7.08334V14.1667C3.125 16.55 4.28333 17.7083 6.66667 17.7083H13.3333C15.7167 17.7083 16.875 16.55 16.875 14.1667V7.08334C16.875 4.70001 15.7167 3.54167 13.3333 3.54167H6.66667Z" fill="#082042"/>
</svg>
