<svg width="22" height="23" viewBox="0 0 22 23" fill="none" xmlns="http://www.w3.org/2000/svg">
<path d="M20.97 17.83C20.97 18.19 20.89 18.56 20.72 18.92C20.55 19.28 20.33 19.62 20.04 19.94C19.55 20.48 19.01 20.87 18.4 21.12C17.8 21.37 17.15 21.5 16.45 21.5C15.43 21.5 14.34 21.26 13.19 20.77C12.04 20.28 10.89 19.62 9.75 18.79C8.6 17.95 7.51 17.02 6.47 15.99C5.44 14.95 4.51 13.86 3.68 12.72C2.86 11.58 2.2 10.44 1.72 9.31C1.24 8.17 1 7.08 1 6.04C1 5.36 1.12 4.71 1.36 4.11C1.6 3.5 1.98 2.94 2.51 2.44C3.15 1.81 3.85 1.5 4.59 1.5C4.87 1.5 5.15 1.56 5.4 1.68C5.66 1.8 5.89 1.98 6.07 2.24L8.39 5.51C8.57 5.76 8.7 5.99 8.79 6.21C8.88 6.42 8.93 6.63 8.93 6.82C8.93 7.06 8.86 7.3 8.72 7.53C8.59 7.76 8.4 8 8.16 8.24L7.4 9.03C7.29 9.14 7.24 9.27 7.24 9.43C7.24 9.51 7.25 9.58 7.27 9.66C7.3 9.74 7.33 9.8 7.35 9.86C7.53 10.19 7.84 10.62 8.28 11.14C8.73 11.66 9.21 12.19 9.73 12.72C10.27 13.25 10.79 13.74 11.32 14.19C11.84 14.63 12.27 14.93 12.61 15.11C12.66 15.13 12.72 15.16 12.79 15.19C12.87 15.22 12.95 15.23 13.04 15.23C13.21 15.23 13.34 15.17 13.45 15.06L14.21 14.31C14.46 14.06 14.7 13.87 14.93 13.75C15.16 13.61 15.39 13.54 15.64 13.54C15.83 13.54 16.03 13.58 16.25 13.67C16.47 13.76 16.7 13.89 16.95 14.06L20.26 16.41C20.52 16.59 20.7 16.8 20.81 17.05C20.91 17.3 20.97 17.55 20.97 17.83Z" stroke="#21B959" stroke-width="1.5" stroke-miterlimit="10"/>
</svg>
