<svg width="18" height="19" viewBox="0 0 18 19" fill="none" xmlns="http://www.w3.org/2000/svg">
<path d="M6.50391 11.2474C6.50391 12.2149 7.24641 12.9949 8.16891 12.9949H10.0514C10.8539 12.9949 11.5064 12.3124 11.5064 11.4724C11.5064 10.5574 11.1089 10.2349 10.5164 10.0249L7.49391 8.97488C6.90141 8.76488 6.50391 8.44238 6.50391 7.52738C6.50391 6.68738 7.15641 6.00488 7.95891 6.00488H9.84141C10.7639 6.00488 11.5064 6.78488 11.5064 7.75238" stroke="#252525" stroke-width="1.3" stroke-linecap="round" stroke-linejoin="round"/>
<path d="M9 5V14" stroke="#252525" stroke-width="1.3" stroke-linecap="round" stroke-linejoin="round"/>
<path d="M9 17C13.1421 17 16.5 13.6421 16.5 9.5C16.5 5.35786 13.1421 2 9 2C4.85786 2 1.5 5.35786 1.5 9.5C1.5 13.6421 4.85786 17 9 17Z" stroke="#252525" stroke-width="1.3" stroke-linecap="round" stroke-linejoin="round"/>
</svg>
