<svg width="25" height="24" viewBox="0 0 25 24" fill="none" xmlns="http://www.w3.org/2000/svg">
<path d="M9.5 1.75H15.5C18.1576 1.75 19.935 2.31976 21.0576 3.44238C22.1802 4.565 22.75 6.3424 22.75 9V15C22.75 17.6576 22.1802 19.435 21.0576 20.5576C19.935 21.6802 18.1576 22.25 15.5 22.25H9.5C6.8424 22.25 5.065 21.6802 3.94238 20.5576C2.81976 19.435 2.25 17.6576 2.25 15V9C2.25 6.3424 2.81976 4.565 3.94238 3.44238C5.065 2.31976 6.8424 1.75 9.5 1.75ZM9.5 2.25C7.15972 2.25 5.42459 2.66134 4.29297 3.79297C3.16134 4.92459 2.75 6.65972 2.75 9V15C2.75 17.3403 3.16134 19.0754 4.29297 20.207C5.42459 21.3387 7.15972 21.75 9.5 21.75H15.5C17.8403 21.75 19.5754 21.3387 20.707 20.207C21.8387 19.0754 22.25 17.3403 22.25 15V9C22.25 6.65972 21.8387 4.92459 20.707 3.79297C19.5754 2.66134 17.8403 2.25 15.5 2.25H9.5Z" fill="white" stroke="white"/>
<path d="M15.3232 11.3338C15.418 11.2391 15.581 11.2391 15.6758 11.3338C15.7587 11.4168 15.7693 11.5522 15.707 11.6483L15.6758 11.6863L12.6758 14.6863C12.6245 14.7376 12.5636 14.7596 12.499 14.7596C12.4508 14.7595 12.4048 14.7473 12.3633 14.7195L12.3232 14.6863L9.32324 11.6863C9.2285 11.5916 9.2285 11.4285 9.32324 11.3338C9.4062 11.2508 9.54164 11.2402 9.6377 11.3026L9.67578 11.3338L12.499 14.157L12.8525 13.8035L15.3232 11.3338Z" fill="white" stroke="white"/>
<path d="M12.5 15.26C12.09 15.26 11.75 14.92 11.75 14.51V6.51001C11.75 6.10001 12.09 5.76001 12.5 5.76001C12.91 5.76001 13.25 6.10001 13.25 6.51001V14.51C13.25 14.93 12.91 15.26 12.5 15.26Z" fill="white"/>
<path d="M12.5004 18.23C10.3904 18.23 8.27043 17.89 6.26043 17.22C5.87043 17.09 5.66043 16.66 5.79043 16.27C5.92043 15.88 6.34043 15.66 6.74043 15.8C10.4604 17.04 14.5504 17.04 18.2704 15.8C18.6604 15.67 19.0904 15.88 19.2204 16.27C19.3504 16.66 19.1404 17.09 18.7504 17.22C16.7304 17.9 14.6104 18.23 12.5004 18.23Z" fill="white"/>
</svg>
