<svg width="17" height="17" viewBox="0 0 17 17" fill="none" xmlns="http://www.w3.org/2000/svg">
<path opacity="0.4" d="M8.00195 1.83334H6.66862C3.33529 1.83334 2.00195 3.16668 2.00195 6.50001V10.5C2.00195 13.8333 3.33529 15.1667 6.66862 15.1667H10.6686C14.002 15.1667 15.3353 13.8333 15.3353 10.5V9.16668" stroke="#ACB5BB" stroke-width="1.3" stroke-linecap="round" stroke-linejoin="round"/>
<path d="M11.3612 2.51332L6.10789 7.76665C5.90789 7.96665 5.70789 8.35999 5.66789 8.64665L5.38122 10.6533C5.27455 11.38 5.78789 11.8867 6.51455 11.7867L8.52122 11.5C8.80122 11.46 9.19456 11.26 9.40122 11.06L14.6546 5.80665C15.5612 4.89999 15.9879 3.84665 14.6546 2.51332C13.3212 1.17999 12.2679 1.60665 11.3612 2.51332Z" stroke="#003CA6" stroke-width="1.3" stroke-miterlimit="10" stroke-linecap="round" stroke-linejoin="round"/>
<path opacity="0.4" d="M10.6074 3.26666C11.0541 4.86 12.3008 6.10666 13.9008 6.56" stroke="#003CA6" stroke-width="1.3" stroke-miterlimit="10" stroke-linecap="round" stroke-linejoin="round"/>
</svg>
