<svg width="20" height="20" viewBox="0 0 20 20" fill="none" xmlns="http://www.w3.org/2000/svg">
<g clip-path="url(#clip0_43_1135)">
<path d="M6.66699 11.6667C6.66699 11.6667 7.91699 13.3334 10.0003 13.3334C12.0837 13.3334 13.3337 11.6667 13.3337 11.6667M12.5003 7.50008H12.5087M7.50033 7.50008H7.50866M18.3337 10.0001C18.3337 14.6025 14.6027 18.3334 10.0003 18.3334C5.39795 18.3334 1.66699 14.6025 1.66699 10.0001C1.66699 5.39771 5.39795 1.66675 10.0003 1.66675C14.6027 1.66675 18.3337 5.39771 18.3337 10.0001ZM12.917 7.50008C12.917 7.7302 12.7304 7.91675 12.5003 7.91675C12.2702 7.91675 12.0837 7.7302 12.0837 7.50008C12.0837 7.26996 12.2702 7.08341 12.5003 7.08341C12.7304 7.08341 12.917 7.26996 12.917 7.50008ZM7.91699 7.50008C7.91699 7.7302 7.73044 7.91675 7.50033 7.91675C7.27021 7.91675 7.08366 7.7302 7.08366 7.50008C7.08366 7.26996 7.27021 7.08341 7.50033 7.08341C7.73044 7.08341 7.91699 7.26996 7.91699 7.50008Z" stroke="#717680" stroke-width="1.66667" stroke-linecap="round" stroke-linejoin="round"/>
</g>
<defs>
<clipPath id="clip0_43_1135">
<rect width="20" height="20" fill="white"/>
</clipPath>
</defs>
</svg>
