<svg width="44" height="44" viewBox="0 0 44 44" fill="none" xmlns="http://www.w3.org/2000/svg">
<rect width="44" height="44" rx="10" fill="#003CA6" fill-opacity="0.1"/>
<path d="M17.8398 24.9123C17.8398 26.5248 19.0773 27.8248 20.6148 27.8248H23.7523C25.0898 27.8248 26.1773 26.6873 26.1773 25.2873C26.1773 23.7623 25.5148 23.2248 24.5273 22.8748L19.4898 21.1248C18.5023 20.7748 17.8398 20.2373 17.8398 18.7123C17.8398 17.3123 18.9273 16.1748 20.2648 16.1748H23.4023C24.9398 16.1748 26.1773 17.4748 26.1773 19.0873" stroke="#003CA6" stroke-width="2" stroke-linecap="round" stroke-linejoin="round"/>
<path d="M22 14.5V29.5" stroke="#003CA6" stroke-width="2" stroke-linecap="round" stroke-linejoin="round"/>
<path d="M22 34.5C28.9036 34.5 34.5 28.9036 34.5 22C34.5 15.0964 28.9036 9.5 22 9.5C15.0964 9.5 9.5 15.0964 9.5 22C9.5 28.9036 15.0964 34.5 22 34.5Z" stroke="#003CA6" stroke-width="1.5" stroke-linecap="round" stroke-linejoin="round"/>
</svg>
