<svg width="18" height="18" viewBox="0 0 18 18" fill="none" xmlns="http://www.w3.org/2000/svg">
<g clip-path="url(#clip0_643_4761)">
<path fill-rule="evenodd" clip-rule="evenodd" d="M11.5001 5.25838C10.76 4.76393 9.89001 4.5 9 4.5V0C10.78 0 12.5201 0.527841 14.0001 1.51677C15.4802 2.5057 16.6337 3.91131 17.3149 5.55583C17.9961 7.20036 18.1743 9.00999 17.8271 10.7558C17.4798 12.5016 16.6226 14.1053 15.3639 15.3639C14.1053 16.6226 12.5016 17.4798 10.7558 17.8271C9.00999 18.1743 7.20036 17.9961 5.55583 17.3149C3.91131 16.6337 2.5057 15.4802 1.51677 14.0001C0.527841 12.5201 0 10.78 0 9H4.5C4.5 9.89001 4.76393 10.76 5.25838 11.5001C5.75284 12.2401 6.45566 12.8169 7.27794 13.1575C8.10018 13.4981 9.00499 13.5872 9.8779 13.4135C10.7508 13.2399 11.5526 12.8113 12.182 12.182C12.8113 11.5526 13.2399 10.7508 13.4135 9.8779C13.5872 9.00499 13.4981 8.10018 13.1575 7.27794C12.8169 6.45566 12.2401 5.75284 11.5001 5.25838Z" fill="#007DFC"/>
<path fill-rule="evenodd" clip-rule="evenodd" d="M4.5 1.94906e-06C4.5 0.590951 4.38361 1.17611 4.15746 1.72208C3.93131 2.26804 3.59984 2.76412 3.18198 3.18198C2.76412 3.59985 2.26804 3.93131 1.72208 4.15746C1.17611 4.38361 0.590947 4.5 1.96699e-07 4.5L0 9C1.1819 9 2.35222 8.76722 3.44415 8.31492C4.53609 7.86263 5.52825 7.19969 6.36394 6.36395C7.19968 5.52825 7.86262 4.53609 8.31492 3.44415C8.76721 2.35222 9 1.1819 9 0L4.5 1.94906e-06Z" fill="#007DFC"/>
</g>
<defs>
<clipPath id="clip0_643_4761">
<rect width="18" height="18" fill="white"/>
</clipPath>
</defs>
</svg>
