<svg width="18" height="19" viewBox="0 0 18 19" fill="none" xmlns="http://www.w3.org/2000/svg">
<path d="M13.4996 5.87C13.4546 5.8625 13.4021 5.8625 13.3571 5.87C12.3221 5.8325 11.4971 4.985 11.4971 3.935C11.4971 2.8625 12.3596 2 13.4321 2C14.5046 2 15.3671 2.87 15.3671 3.935C15.3596 4.985 14.5346 5.8325 13.4996 5.87Z" stroke="white" stroke-width="1.5" stroke-linecap="round" stroke-linejoin="round"/>
<path d="M12.7266 11.33C13.7541 11.5025 14.8866 11.3225 15.6816 10.79C16.7391 10.085 16.7391 8.93 15.6816 8.225C14.8791 7.6925 13.7316 7.51249 12.7041 7.69249" stroke="white" stroke-width="1.5" stroke-linecap="round" stroke-linejoin="round"/>
<path d="M4.47785 5.87C4.52285 5.8625 4.57535 5.8625 4.62035 5.87C5.65535 5.8325 6.48035 4.985 6.48035 3.935C6.48035 2.8625 5.61785 2 4.54535 2C3.47285 2 2.61035 2.87 2.61035 3.935C2.61785 4.985 3.44285 5.8325 4.47785 5.87Z" stroke="white" stroke-width="1.5" stroke-linecap="round" stroke-linejoin="round"/>
<path d="M5.25008 11.33C4.22258 11.5025 3.09008 11.3225 2.29508 10.79C1.23758 10.085 1.23758 8.93 2.29508 8.225C3.09758 7.6925 4.24508 7.51249 5.27258 7.69249" stroke="white" stroke-width="1.5" stroke-linecap="round" stroke-linejoin="round"/>
<path d="M8.99957 11.4725C8.95457 11.465 8.90207 11.465 8.85707 11.4725C7.82207 11.435 6.99707 10.5875 6.99707 9.53751C6.99707 8.46501 7.85957 7.60251 8.93207 7.60251C10.0046 7.60251 10.8671 8.47251 10.8671 9.53751C10.8596 10.5875 10.0346 11.4425 8.99957 11.4725Z" stroke="white" stroke-width="1.5" stroke-linecap="round" stroke-linejoin="round"/>
<path d="M6.81754 13.835C5.76004 14.54 5.76004 15.695 6.81754 16.4C8.01754 17.2025 9.98254 17.2025 11.1825 16.4C12.24 15.695 12.24 14.54 11.1825 13.835C9.99004 13.04 8.01754 13.04 6.81754 13.835Z" stroke="white" stroke-width="1.5" stroke-linecap="round" stroke-linejoin="round"/>
</svg>
