<svg width="24" height="24" viewBox="0 0 24 24" fill="none" xmlns="http://www.w3.org/2000/svg">
<g clip-path="url(#clip0_992_7015)">
<path d="M17.841 10.707V1.17188C17.841 0.912984 17.6312 0.703125 17.3723 0.703125H1.17188C0.912984 0.703125 0.703125 0.912984 0.703125 1.17188V22.828C0.703125 23.0869 0.912984 23.2968 1.17188 23.2968L17.3659 23.2969" stroke="black" stroke-width="1.5" stroke-miterlimit="10" stroke-linecap="round" stroke-linejoin="round"/>
<path d="M4.00781 10.7276H9.435" stroke="black" stroke-width="1.5" stroke-miterlimit="10" stroke-linecap="round" stroke-linejoin="round"/>
<path d="M4.00781 7.91492H9.435" stroke="black" stroke-width="1.5" stroke-miterlimit="10" stroke-linecap="round" stroke-linejoin="round"/>
<path d="M4.00781 5.10217H14.4937" stroke="black" stroke-width="1.5" stroke-miterlimit="10" stroke-linecap="round" stroke-linejoin="round"/>
<path d="M4.00781 13.5211H9.435" stroke="black" stroke-width="1.5" stroke-miterlimit="10" stroke-linecap="round" stroke-linejoin="round"/>
<path d="M4.00781 15.8651H9.435" stroke="black" stroke-width="1.5" stroke-miterlimit="10" stroke-linecap="round" stroke-linejoin="round"/>
<path d="M4.00781 18.6777H9.435" stroke="black" stroke-width="1.5" stroke-miterlimit="10" stroke-linecap="round" stroke-linejoin="round"/>
<path d="M23.2964 15.6349L23.2716 12.3677C22.092 12.3765 21.0703 11.6955 20.5991 10.7071L14.9673 10.7487C14.5112 11.7439 13.4999 12.4399 12.3203 12.4486L12.3451 15.7157C12.366 18.464 13.8578 20.9967 16.2678 22.3754L17.8786 23.2968L19.4752 22.3517C21.864 20.9376 23.3172 18.3832 23.2964 15.6349Z" stroke="black" stroke-width="1.5" stroke-miterlimit="10" stroke-linecap="round" stroke-linejoin="round"/>
<path d="M16.1309 16.6485L17.337 18.13L19.8809 15.4252" stroke="black" stroke-width="1.5" stroke-miterlimit="10" stroke-linecap="round" stroke-linejoin="round"/>
</g>
<defs>
<clipPath id="clip0_992_7015">
<rect width="24" height="24" fill="white"/>
</clipPath>
</defs>
</svg>
