<svg width="24" height="24" viewBox="0 0 24 24" fill="none" xmlns="http://www.w3.org/2000/svg">
<mask id="mask0_992_6988" style="mask-type:luminance" maskUnits="userSpaceOnUse" x="0" y="0" width="24" height="24">
<path d="M0 1.90735e-06H24V24H0V1.90735e-06Z" fill="white"/>
</mask>
<g mask="url(#mask0_992_6988)">
<path d="M15.3281 11.9531C15.3281 13.7653 13.8591 15.2344 12.0469 15.2344C10.2347 15.2344 8.76562 13.7653 8.76562 11.9531C8.76562 10.1409 10.2347 8.67188 12.0469 8.67188C13.8591 8.67188 15.3281 10.1409 15.3281 11.9531Z" stroke="black" stroke-width="1.5" stroke-miterlimit="10" stroke-linecap="round" stroke-linejoin="round"/>
<path d="M19.0862 18.1321C19.9895 18.641 21.1359 18.3242 21.6468 17.4244C22.1577 16.5246 21.8397 15.3826 20.9364 14.8737L20.8784 14.8408C20.2619 14.4906 19.9142 13.8014 20.0105 13.0988C20.0602 12.7357 20.0859 12.365 20.0859 11.9883C20.0859 11.5914 20.0573 11.2011 20.0021 10.8195C19.9001 10.1152 20.2505 9.42209 20.8694 9.07067L20.9364 9.03256C21.8397 8.52364 22.1577 7.38162 21.6468 6.48181C21.1359 5.58204 19.9895 5.26522 19.0862 5.77414L19.004 5.82083C18.378 6.17633 17.6025 6.10461 17.0405 5.65465C16.4215 5.15914 15.7284 4.7525 14.9803 4.454C14.3147 4.1884 13.875 3.548 13.875 2.83133V2.81253C13.875 1.77697 13.0355 0.937529 12 0.937529C10.9645 0.937529 10.125 1.77697 10.125 2.81253C10.125 3.53248 9.68132 4.17509 9.01129 4.43848C8.25473 4.73586 7.55376 5.14376 6.92807 5.64218C6.36628 6.08979 5.59223 6.15945 4.96762 5.8047L4.91386 5.77414C4.01057 5.26522 2.86415 5.58204 2.35322 6.48181C1.84228 7.38162 2.16037 8.52364 3.06365 9.03256L3.0787 9.04114C3.70345 9.39598 4.05693 10.0962 3.95292 10.8071C3.89648 11.1927 3.86718 11.5871 3.86718 11.9883C3.86718 12.3726 3.894 12.7507 3.94579 13.1208C4.04423 13.8241 3.69557 14.5148 3.07809 14.8654L3.06365 14.8737C2.16037 15.3826 1.84228 16.5246 2.35322 17.4244C2.86415 18.3242 4.01053 18.641 4.91381 18.1321" stroke="black" stroke-width="1.5" stroke-miterlimit="10" stroke-linecap="round" stroke-linejoin="round"/>
<path d="M6.89062 23.0625C6.89062 20.4355 9.02273 18.2812 11.6528 18.2812H12.5347C15.1648 18.2812 17.2969 20.4355 17.2969 23.0625" stroke="black" stroke-width="1.5" stroke-miterlimit="10" stroke-linecap="round" stroke-linejoin="round"/>
</g>
</svg>
