<svg width="24" height="24" viewBox="0 0 24 24" fill="none" xmlns="http://www.w3.org/2000/svg">
<g clip-path="url(#clip0_992_6887)">
<path d="M10.125 17.4375V15.5625M10.125 15.5625C10.125 14.527 9.28566 13.6875 8.25019 13.6875C8.25005 13.6875 8.25 13.6875 8.25 13.6875C7.21448 13.6875 6.375 14.527 6.375 15.5625V19.3125C6.375 21.3836 8.05392 23.0625 10.125 23.0625H15.75C17.8211 23.0625 19.5 21.3836 19.5 19.3125V17.4375C19.5 15.3664 17.8211 13.6875 15.75 13.6875H13.875V6.5625C13.875 5.52698 13.0355 4.6875 12 4.6875C10.9645 4.6875 10.125 5.52698 10.125 6.5625V15.5625Z" stroke="black" stroke-width="1.5" stroke-miterlimit="10" stroke-linecap="round" stroke-linejoin="round"/>
<path d="M6.375 8.4375H4.6875C2.61642 8.4375 0.9375 6.75858 0.9375 4.6875C0.9375 2.61642 2.61642 0.9375 4.6875 0.9375H19.3125C21.3836 0.9375 23.0625 2.61642 23.0625 4.6875C23.0625 6.75858 21.3836 8.4375 19.3125 8.4375H17.625" stroke="black" stroke-width="1.5" stroke-miterlimit="10" stroke-linecap="round" stroke-linejoin="round"/>
</g>
<defs>
<clipPath id="clip0_992_6887">
<rect width="24" height="24" fill="white"/>
</clipPath>
</defs>
</svg>
