<svg width="108" height="20" viewBox="0 0 108 20" fill="none" xmlns="http://www.w3.org/2000/svg">
<path d="M10 0L12.3629 6.74775L19.5106 6.90983L13.8232 11.2422L15.8779 18.0902L10 14.02L4.12215 18.0902L6.17675 11.2422L0.489435 6.90983L7.6371 6.74775L10 0Z" fill="#FF7F22"/>
<path d="M32 0L34.3629 6.74775L41.5106 6.90983L35.8232 11.2422L37.8779 18.0902L32 14.02L26.1221 18.0902L28.1768 11.2422L22.4894 6.90983L29.6371 6.74775L32 0Z" fill="#FF7F22"/>
<path d="M54 0L56.3629 6.74775L63.5106 6.90983L57.8232 11.2422L59.8779 18.0902L54 14.02L48.1221 18.0902L50.1768 11.2422L44.4894 6.90983L51.6371 6.74775L54 0Z" fill="#FF7F22"/>
<path d="M76 0L78.3629 6.74775L85.5106 6.90983L79.8232 11.2422L81.8779 18.0902L76 14.02L70.1221 18.0902L72.1768 11.2422L66.4894 6.90983L73.6371 6.74775L76 0Z" fill="#FF7F22"/>
<path d="M98 0L100.363 6.74775L107.511 6.90983L101.823 11.2422L103.878 18.0902L98 14.02L92.1221 18.0902L94.1768 11.2422L88.4894 6.90983L95.6371 6.74775L98 0Z" fill="#CECECE"/>
</svg>
