<svg width="21" height="20" viewBox="0 0 21 20" fill="none" xmlns="http://www.w3.org/2000/svg">
<path d="M9.80826 0.786757C10.0421 0.0669833 11.0604 0.0669844 11.2943 0.786758L13.1823 6.59746C13.2869 6.91935 13.5868 7.13729 13.9253 7.13729H20.035C20.7919 7.13729 21.1065 8.10574 20.4942 8.55058L15.5514 12.1418C15.2775 12.3407 15.163 12.6934 15.2676 13.0153L17.1556 18.826C17.3894 19.5457 16.5656 20.1443 15.9534 19.6994L11.0105 16.1082C10.7367 15.9093 10.3659 15.9093 10.0921 16.1082L5.14919 19.6994C4.53691 20.1443 3.7131 19.5457 3.94697 18.826L5.83498 13.0153C5.93957 12.6934 5.82499 12.3407 5.55117 12.1418L0.608294 8.55058C-0.00398171 8.10574 0.310688 7.13729 1.0675 7.13729H7.17723C7.51569 7.13729 7.81566 6.91935 7.92025 6.59746L9.80826 0.786757Z" fill="#F7CE45"/>
</svg>
