<svg width="20" height="20" viewBox="0 0 20 20" fill="none" xmlns="http://www.w3.org/2000/svg">
<path d="M0 10C0 4.47715 4.47715 0 10 0C15.5228 0 20 4.47715 20 10C20 15.5228 15.5228 20 10 20C4.47715 20 0 15.5228 0 10Z" fill="#47B643"/>
<path fill-rule="evenodd" clip-rule="evenodd" d="M14.247 6.15838L8.28032 11.9167L6.69699 10.2251C6.40532 9.95005 5.94699 9.93338 5.61365 10.1667C5.28865 10.4084 5.19699 10.8334 5.39699 11.1751L7.27199 14.2251C7.45532 14.5084 7.77199 14.6834 8.13032 14.6834C8.47199 14.6834 8.79699 14.5084 8.98032 14.2251C9.28032 13.8334 15.0053 7.00838 15.0053 7.00838C15.7553 6.24172 14.847 5.56672 14.247 6.15005V6.15838Z" fill="#FCFCFC"/>
</svg>
