<svg width="64" height="64" viewBox="0 0 64 64" fill="none" xmlns="http://www.w3.org/2000/svg">
<rect width="64" height="64" rx="32" fill="#F2F4F7"/>
<path d="M42.6667 44C42.6667 42.1392 42.6667 41.2089 42.4371 40.4518C41.92 38.7473 40.5861 37.4134 38.8816 36.8963C38.1245 36.6667 37.1941 36.6667 35.3334 36.6667H28.6667C26.806 36.6667 25.8756 36.6667 25.1185 36.8963C23.414 37.4134 22.0801 38.7473 21.563 40.4518C21.3334 41.2089 21.3334 42.1392 21.3334 44M38 26C38 29.3137 35.3138 32 32 32C28.6863 32 26 29.3137 26 26C26 22.6863 28.6863 20 32 20C35.3138 20 38 22.6863 38 26Z" stroke="#475467" stroke-width="2.66667" stroke-linecap="round" stroke-linejoin="round"/>
</svg>
