<svg width="25" height="25" viewBox="0 0 25 25" fill="none" xmlns="http://www.w3.org/2000/svg">
<path d="M3.6665 6.66663H5.6665H21.6665" stroke="white" stroke-width="2" stroke-linecap="round" stroke-linejoin="round"/>
<path d="M19.6665 6.66663V20.6666C19.6665 21.1971 19.4558 21.7058 19.0807 22.0808C18.7056 22.4559 18.1969 22.6666 17.6665 22.6666H7.6665C7.13607 22.6666 6.62736 22.4559 6.25229 22.0808C5.87722 21.7058 5.6665 21.1971 5.6665 20.6666V6.66663M8.6665 6.66663V4.66663C8.6665 4.13619 8.87722 3.62749 9.25229 3.25241C9.62736 2.87734 10.1361 2.66663 10.6665 2.66663H14.6665C15.1969 2.66663 15.7056 2.87734 16.0807 3.25241C16.4558 3.62749 16.6665 4.13619 16.6665 4.66663V6.66663" stroke="white" stroke-width="2" stroke-linecap="round" stroke-linejoin="round"/>
<path d="M10.6665 11.6666V17.6666" stroke="white" stroke-width="2" stroke-linecap="round" stroke-linejoin="round"/>
<path d="M14.6665 11.6666V17.6666" stroke="white" stroke-width="2" stroke-linecap="round" stroke-linejoin="round"/>
</svg>
